<svg xmlns="http://www.w3.org/2000/svg" xmlns:xlink="http://www.w3.org/1999/xlink" width="200" height="200" viewBox="0 0 200 200">
  <defs>
    <linearGradient id="linear-gradient" x1="0.5" y1="1" x2="0.5" gradientUnits="objectBoundingBox">
      <stop offset="0" stop-color="#057ae5"/>
      <stop offset="1" stop-color="#67f1de"/>
    </linearGradient>
  </defs>
  <g id="Group_1" data-name="Group 1" transform="translate(-557 403)">
    <path id="Path_5" data-name="Path 5" d="M35,0H165a35,35,0,0,1,35,35V165a35,35,0,0,1-35,35H35A35,35,0,0,1,0,165V35A35,35,0,0,1,35,0Z" transform="translate(557 -403)" fill="url(#linear-gradient)"/>
    <path id="pen-solid" d="M63.3,20.31,91.18,48.187,30.645,108.722,5.79,111.465a5.227,5.227,0,0,1-5.768-5.773L2.788,80.82,63.3,20.31Zm45.119-4.15L95.333,3.07a10.458,10.458,0,0,0-14.788,0L68.23,15.384,96.108,43.261l12.314-12.314a10.458,10.458,0,0,0,0-14.788Z" transform="translate(601.011 -358.506)" fill="#fff"/>
  </g>
</svg>
