<svg xmlns="http://www.w3.org/2000/svg" width="169" height="43" viewBox="0 0 169 43">
  <g id="Group_1" data-name="Group 1" transform="translate(-773 -186)">
    <g id="Component_1_1" data-name="Component 1 – 1" transform="translate(773 186)">
      <text id="Qu_ckNote" data-name="Qu ckNote" transform="translate(0 35)" fill="#fff" font-size="32" font-family="SegoeUI-Semibold, Segoe UI" font-weight="600" letter-spacing="0.05em"><tspan x="0" y="0">Qu ckNote</tspan></text>
    </g>
    <path id="pen-solid" d="M11.03-.588,14.422,2.8,3.72,13.486.7,13.82a.636.636,0,0,1-.7-.7l.33-3.028Zm6.659-1.636L16.1-3.816a1.272,1.272,0,0,0-.9-.373,1.272,1.272,0,0,0-.9.373l-1.5,1.5,3.392,3.392,1.5-1.5a1.272,1.272,0,0,0,.373-.9,1.272,1.272,0,0,0-.373-.9Z" transform="matrix(0.866, -0.5, 0.5, 0.866, 814.192, 209.479)" fill="#fff"/>
  </g>
</svg>
