<svg width="252" height="1440" viewBox="0 0 252 1440" fill="none" xmlns="http://www.w3.org/2000/svg">
<path d="M188 1440L161.3 1410C135 1380 81.0003 1320 44.0003 1260C7.00035 1200 -14.9997 1140 12.0003 1080C39.0003 1020 113 960 113.3 900C113 840 39.0003 780 22.7003 720C7.00034 660 49.0004 600 92.0004 540C135 480 177 420 156 360C135 300 49.0003 240 33.3004 180C17.0004 120 71.0004 60 97.3004 30L124 0H252V30C252 60 252 120 252 180C252 240 252 300 252 360C252 420 252 480 252 540C252 600 252 660 252 720C252 780 252 840 252 900C252 960 252 1020 252 1080C252 1140 252 1200 252 1260C252 1320 252 1380 252 1410V1440H188Z" fill="url(#paint0_linear)"/>
<defs>
<linearGradient id="paint0_linear" x1="126" y1="-3.96312e-06" x2="126" y2="1440" gradientUnits="userSpaceOnUse">
<stop stop-color="#0657E4"/>
<stop offset="1" stop-color="#6FBBF6"/>
</linearGradient>
</defs>
</svg>
