<?xml version="1.0" standalone="no"?><svg xmlns="http://www.w3.org/2000/svg" viewBox="0 0 1440 320"><path fill="#0c83e4" fill-opacity="1" d="M0,256L30,229.3C60,203,120,149,180,112C240,75,300,53,360,80C420,107,480,181,540,181.3C600,181,660,107,720,90.7C780,75,840,117,900,160C960,203,1020,245,1080,224C1140,203,1200,117,1260,101.3C1320,85,1380,139,1410,165.3L1440,192L1440,320L1410,320C1380,320,1320,320,1260,320C1200,320,1140,320,1080,320C1020,320,960,320,900,320C840,320,780,320,720,320C660,320,600,320,540,320C480,320,420,320,360,320C300,320,240,320,180,320C120,320,60,320,30,320L0,320Z"></path></svg>