<svg width="384" height="384" viewBox="0 0 384 384" fill="none" xmlns="http://www.w3.org/2000/svg">
<path d="M206.896 0.87395C202.938 -0.81405 198.438 -0.0110502 195.333 2.91595L85.479 106.665H10.667C4.771 106.665 0 111.436 0 117.332V266.665C0 272.561 4.771 277.332 10.667 277.332H85.48L195.334 381.082C197.355 382.999 200.001 383.999 202.667 383.999C204.084 383.999 205.521 383.718 206.896 383.124C210.792 381.447 213.334 377.593 213.334 373.332V10.665C213.333 6.40495 210.792 2.55095 206.896 0.87395Z" fill="#5860FF"/>
<path d="M262.452 132.214L247.253 147.413C243.748 150.918 242.813 156.581 245.74 160.581C252.189 169.4 256 180.263 256 191.999C256 203.735 252.189 214.598 245.74 223.416C242.813 227.416 243.748 233.08 247.253 236.585L262.452 251.783C267.107 256.439 274.711 255.722 278.732 250.507C291.227 234.299 298.667 214.002 298.667 191.999C298.667 169.995 291.227 149.698 278.732 133.49C274.711 128.275 267.107 127.557 262.452 132.214Z" fill="#5860FF"/>
<path d="M338.423 71.9049C334.413 67.3749 327.272 67.3929 322.995 71.6709L307.903 86.7629C303.86 90.8049 303.898 97.1579 307.633 101.484C328.624 125.791 341.334 157.438 341.334 191.998C341.334 226.558 328.624 258.205 307.633 282.514C303.897 286.84 303.861 293.191 307.903 297.233L322.995 312.325C327.272 316.604 334.413 316.621 338.425 312.092C366.771 280.085 384 238.016 384 191.999C384 145.981 366.771 103.912 338.423 71.9049Z" fill="#5860FF"/>
</svg>
