<svg width="576" height="448" viewBox="0 0 576 448" fill="none" xmlns="http://www.w3.org/2000/svg">
<path d="M280.37 116.26L96.0003 268.11V432C96.0003 436.244 97.686 440.313 100.687 443.314C103.687 446.314 107.757 448 112 448L224.06 447.71C228.29 447.689 232.339 445.994 235.322 442.996C238.306 439.997 239.98 435.94 239.98 431.71V336C239.98 331.757 241.666 327.687 244.667 324.686C247.667 321.686 251.737 320 255.98 320H319.98C324.224 320 328.293 321.686 331.294 324.686C334.295 327.687 335.98 331.757 335.98 336V431.64C335.974 433.745 336.383 435.831 337.184 437.778C337.985 439.725 339.163 441.495 340.649 442.986C342.135 444.477 343.901 445.66 345.846 446.467C347.79 447.275 349.875 447.69 351.98 447.69L464 448C468.244 448 472.313 446.314 475.314 443.314C478.315 440.313 480 436.244 480 432V268L295.67 116.26C293.503 114.513 290.804 113.561 288.02 113.561C285.237 113.561 282.537 114.513 280.37 116.26V116.26ZM571.6 219.47L488 150.56V12.05C488 8.86745 486.736 5.81521 484.486 3.56477C482.235 1.31433 479.183 0.0500488 476 0.0500488H420C416.818 0.0500488 413.765 1.31433 411.515 3.56477C409.265 5.81521 408 8.86745 408 12.05V84.66L318.47 11C309.878 3.92984 299.097 0.0641823 287.97 0.0641823C276.843 0.0641823 266.062 3.92984 257.47 11L4.34034 219.47C3.12521 220.474 2.11989 221.708 1.38181 223.101C0.64373 224.494 0.187359 226.019 0.0387731 227.589C-0.109813 229.158 0.0522982 230.741 0.515844 232.248C0.979389 233.755 1.73528 235.156 2.74034 236.37L28.2403 267.37C29.2427 268.589 30.4755 269.598 31.8683 270.34C33.2611 271.081 34.7866 271.541 36.3573 271.692C37.928 271.844 39.5131 271.684 41.0219 271.222C42.5308 270.76 43.9337 270.005 45.1503 269L280.37 75.2601C282.537 73.5133 285.237 72.5608 288.02 72.5608C290.804 72.5608 293.503 73.5133 295.67 75.2601L530.9 269C532.115 270.005 533.516 270.761 535.022 271.225C536.529 271.688 538.112 271.85 539.682 271.702C541.251 271.553 542.776 271.097 544.169 270.359C545.562 269.621 546.796 268.615 547.8 267.4L573.3 236.4C574.304 235.179 575.057 233.771 575.515 232.257C575.973 230.744 576.128 229.155 575.97 227.582C575.812 226.008 575.344 224.482 574.595 223.09C573.845 221.698 572.827 220.468 571.6 219.47V219.47Z" fill="white"/>
</svg>
