<svg width="512" height="433" viewBox="0 0 512 433" fill="none" xmlns="http://www.w3.org/2000/svg">
<path d="M139.61 4.49992C138.496 3.3812 137.171 2.49356 135.712 1.8879C134.254 1.28223 132.69 0.970459 131.11 0.970459C129.531 0.970459 127.967 1.28223 126.509 1.8879C125.05 2.49356 123.725 3.3812 122.61 4.49992L58.9304 67.8099L36.2304 45.6899C35.1156 44.5712 33.7909 43.6836 32.3323 43.0779C30.8736 42.4722 29.3098 42.1605 27.7304 42.1605C26.1511 42.1605 24.5872 42.4722 23.1286 43.0779C21.67 43.6836 20.3453 44.5712 19.2304 45.6899L3.53044 61.4099C2.41172 62.5248 1.52408 63.8495 0.918413 65.3081C0.312748 66.7667 0.000976563 68.3306 0.000976562 69.9099C0.000976563 71.4893 0.312748 73.0531 0.918413 74.5117C1.52408 75.9704 2.41172 77.2951 3.53044 78.4099L51.1204 125.81C53.4959 128.068 56.648 129.327 59.9254 129.327C63.2028 129.327 66.355 128.068 68.7304 125.81L84.3204 110.19L156.52 37.9999C158.77 35.7486 160.041 32.701 160.058 29.5184C160.075 26.3358 158.836 23.275 156.61 20.9999L139.61 4.49992ZM139.61 163.69C138.496 162.571 137.171 161.684 135.712 161.078C134.254 160.472 132.69 160.16 131.11 160.16C129.531 160.16 127.967 160.472 126.509 161.078C125.05 161.684 123.725 162.571 122.61 163.69L58.9304 227.41L36.2304 205.31C35.1156 204.191 33.7909 203.304 32.3323 202.698C30.8736 202.092 29.3098 201.78 27.7304 201.78C26.1511 201.78 24.5872 202.092 23.1286 202.698C21.67 203.304 20.3453 204.191 19.2304 205.31L3.53044 221C2.41172 222.115 1.52408 223.439 0.918413 224.898C0.312748 226.357 0.000976562 227.921 0.000976562 229.5C0.000976562 231.079 0.312748 232.643 0.918413 234.102C1.52408 235.56 2.41172 236.885 3.53044 238L51.0004 285.5C53.3742 287.757 56.5247 289.016 59.8004 289.016C63.0762 289.016 66.2267 287.757 68.6004 285.5L84.3004 269.81L156.5 197.59C158.741 195.354 160.008 192.324 160.025 189.158C160.042 185.993 158.807 182.949 156.59 180.69L139.61 163.69ZM64.0004 337C37.5104 337 15.4104 358.5 15.4104 385C15.4104 411.5 37.5304 433 64.0004 433C76.7308 433 88.9398 427.943 97.9416 418.941C106.943 409.939 112 397.73 112 385C112 372.27 106.943 360.061 97.9416 351.059C88.9398 342.057 76.7308 337 64.0004 337ZM496 353H208C203.757 353 199.687 354.686 196.687 357.686C193.686 360.687 192 364.756 192 369V401C192 405.243 193.686 409.313 196.687 412.314C199.687 415.314 203.757 417 208 417H496C500.244 417 504.314 415.314 507.314 412.314C510.315 409.313 512 405.243 512 401V369C512 364.756 510.315 360.687 507.314 357.686C504.314 354.686 500.244 353 496 353ZM496 32.9999H208C203.757 32.9999 199.687 34.6856 196.687 37.6862C193.686 40.6868 192 44.7565 192 48.9999V80.9999C192 85.2434 193.686 89.313 196.687 92.3136C199.687 95.3142 203.757 96.9999 208 96.9999H496C500.244 96.9999 504.314 95.3142 507.314 92.3136C510.315 89.313 512 85.2434 512 80.9999V48.9999C512 44.7565 510.315 40.6868 507.314 37.6862C504.314 34.6856 500.244 32.9999 496 32.9999V32.9999ZM496 193H208C203.757 193 199.687 194.686 196.687 197.686C193.686 200.687 192 204.756 192 209V241C192 245.243 193.686 249.313 196.687 252.314C199.687 255.314 203.757 257 208 257H496C500.244 257 504.314 255.314 507.314 252.314C510.315 249.313 512 245.243 512 241V209C512 204.756 510.315 200.687 507.314 197.686C504.314 194.686 500.244 193 496 193Z" fill="white"/>
</svg>
